HIERARCHY
ROOT Hips
{
	OFFSET 0.000000 97.167313 0.000000
	CHANNELS 6 Xposition Yposition Zposition Xrotation Yrotation Zrotation
	JOINT Spine
	{
		OFFSET 0.000000 13.784798 0.064400
		CHANNELS 3 Xrotation Yrotation Zrotation
		JOINT Spine1
		{
			OFFSET 0.000000 12.037903 0.404700
			CHANNELS 3 Xrotation Yrotation Zrotation
			JOINT Spine2
			{
				OFFSET 0.000000 17.795601 0.420200
				CHANNELS 3 Xrotation Yrotation Zrotation
				JOINT Neck
				{
					OFFSET 0.000000 39.131302 11.954600
					CHANNELS 3 Xrotation Yrotation Zrotation
					JOINT Head
					{
						OFFSET 0.000000 14.456192 15.627699
						CHANNELS 3 Xrotation Yrotation Zrotation
						JOINT HeadTop_End
						{
							OFFSET 0.000000 15.703506 7.603401
							CHANNELS 3 Xrotation Yrotation Zrotation
							End Site
							{
								OFFSET 0.000000 17.447403 0.000000
							}
						}
					}
				}
				JOINT LeftShoulder
				{
					OFFSET 17.399500 24.608795 1.168800
					CHANNELS 3 Xrotation Yrotation Zrotation
					JOINT LeftArm
					{
						OFFSET 18.980635 5.765305 1.818600
						CHANNELS 3 Xrotation Yrotation Zrotation
						JOINT LeftForeArm
						{
							OFFSET 49.290169 0.000000 0.000000
							CHANNELS 3 Xrotation Yrotation Zrotation
							JOINT LeftHand
							{
								OFFSET 31.562012 0.000000 0.000000
								CHANNELS 3 Xrotation Yrotation Zrotation
								JOINT LeftHandThumb1
								{
									OFFSET 6.133995 -4.388519 7.076070
									CHANNELS 3 Xrotation Yrotation Zrotation
									JOINT LeftHandThumb2
									{
										OFFSET 6.037666 -3.485840 3.485847
										CHANNELS 3 Xrotation Yrotation Zrotation
										JOINT LeftHandThumb3
										{
											OFFSET 6.496506 -3.750763 3.750761
											CHANNELS 3 Xrotation Yrotation Zrotation
											JOINT LeftHandThumb4
											{
												OFFSET 5.616882 -3.242905 3.242910
												CHANNELS 3 Xrotation Yrotation Zrotation
												End Site
												{
													OFFSET -1.254608 7.132141 0.375429
												}
											}
										}
									}
								}
								JOINT LeftHandPinky1
								{
									OFFSET 18.920792 -0.453171 -11.426712
									CHANNELS 3 Xrotation Yrotation Zrotation
									JOINT LeftHandPinky2
									{
										OFFSET 4.919586 0.000000 0.000000
										CHANNELS 3 Xrotation Yrotation Zrotation
										JOINT LeftHandPinky3
										{
											OFFSET 5.233047 0.000000 0.000000
											CHANNELS 3 Xrotation Yrotation Zrotation
											JOINT LeftHandPinky4
											{
												OFFSET 5.571716 0.000000 0.000000
												CHANNELS 3 Xrotation Yrotation Zrotation
												End Site
												{
													OFFSET -3.459808 4.342407 -0.466164
												}
											}
										}
									}
								}
								JOINT LeftHandRing1
								{
									OFFSET 22.726120 -0.094986 -6.500475
									CHANNELS 3 Xrotation Yrotation Zrotation
									JOINT LeftHandRing2
									{
										OFFSET 6.408615 0.000000 0.000000
										CHANNELS 3 Xrotation Yrotation Zrotation
										JOINT LeftHandRing3
										{
											OFFSET 6.150223 0.000000 0.000000
											CHANNELS 3 Xrotation Yrotation Zrotation
											JOINT LeftHandRing4
											{
												OFFSET 6.145386 0.000000 0.000000
												CHANNELS 3 Xrotation Yrotation Zrotation
												End Site
												{
													OFFSET -3.671402 4.923981 -0.202372
												}
											}
										}
									}
								}
								JOINT LeftHandMiddle1
								{
									OFFSET 23.373947 0.000000 0.000001
									CHANNELS 3 Xrotation Yrotation Zrotation
									JOINT LeftHandMiddle2
									{
										OFFSET 6.996567 0.000000 0.000000
										CHANNELS 3 Xrotation Yrotation Zrotation
										JOINT LeftHandMiddle3
										{
											OFFSET 7.015945 0.000000 0.000000
											CHANNELS 3 Xrotation Yrotation Zrotation
											JOINT LeftHandMiddle4
											{
												OFFSET 7.721573 0.000000 0.000000
												CHANNELS 3 Xrotation Yrotation Zrotation
												End Site
												{
													OFFSET -4.651108 6.158463 0.251582
												}
											}
										}
									}
								}
								JOINT LeftHandIndex1
								{
									OFFSET 21.310577 -0.490082 6.209344
									CHANNELS 3 Xrotation Yrotation Zrotation
									JOINT LeftHandIndex2
									{
										OFFSET 7.536453 0.000000 0.000000
										CHANNELS 3 Xrotation Yrotation Zrotation
										JOINT LeftHandIndex3
										{
											OFFSET 7.512344 0.000000 0.000000
											CHANNELS 3 Xrotation Yrotation Zrotation
											JOINT LeftHandIndex4
											{
												OFFSET 10.212402 0.000000 0.000001
												CHANNELS 3 Xrotation Yrotation Zrotation
												End Site
												{
													OFFSET -5.180801 8.690506 1.388433
												}
											}
										}
									}
								}
							}
						}
					}
				}
				JOINT RightShoulder
				{
					OFFSET -17.399500 24.608795 1.168800
					CHANNELS 3 Xrotation Yrotation Zrotation
					JOINT RightArm
					{
						OFFSET -18.980635 5.765305 1.818600
						CHANNELS 3 Xrotation Yrotation Zrotation
						JOINT RightForeArm
						{
							OFFSET -49.290169 0.000000 0.000000
							CHANNELS 3 Xrotation Yrotation Zrotation
							JOINT RightHand
							{
								OFFSET -31.562012 0.000000 0.000000
								CHANNELS 3 Xrotation Yrotation Zrotation
								JOINT RightHandThumb1
								{
									OFFSET -6.133995 -4.388519 7.076070
									CHANNELS 3 Xrotation Yrotation Zrotation
									JOINT RightHandThumb2
									{
										OFFSET -6.037666 -3.485840 3.485847
										CHANNELS 3 Xrotation Yrotation Zrotation
										JOINT RightHandThumb3
										{
											OFFSET -6.496506 -3.750763 3.750761
											CHANNELS 3 Xrotation Yrotation Zrotation
											JOINT RightHandThumb4
											{
												OFFSET -5.616882 -3.242905 3.242910
												CHANNELS 3 Xrotation Yrotation Zrotation
												End Site
												{
													OFFSET 1.254608 7.132141 0.375429
												}
											}
										}
									}
								}
								JOINT RightHandIndex1
								{
									OFFSET -21.310577 -0.490082 6.209344
									CHANNELS 3 Xrotation Yrotation Zrotation
									JOINT RightHandIndex2
									{
										OFFSET -7.536453 0.000000 0.000000
										CHANNELS 3 Xrotation Yrotation Zrotation
										JOINT RightHandIndex3
										{
											OFFSET -7.512344 0.000000 0.000000
											CHANNELS 3 Xrotation Yrotation Zrotation
											JOINT RightHandIndex4
											{
												OFFSET -10.212402 0.000000 0.000001
												CHANNELS 3 Xrotation Yrotation Zrotation
												End Site
												{
													OFFSET 5.180801 8.690506 1.388433
												}
											}
										}
									}
								}
								JOINT RightHandMiddle1
								{
									OFFSET -23.373947 0.000000 0.000001
									CHANNELS 3 Xrotation Yrotation Zrotation
									JOINT RightHandMiddle2
									{
										OFFSET -6.996567 0.000000 0.000000
										CHANNELS 3 Xrotation Yrotation Zrotation
										JOINT RightHandMiddle3
										{
											OFFSET -7.015945 0.000000 0.000000
											CHANNELS 3 Xrotation Yrotation Zrotation
											JOINT RightHandMiddle4
											{
												OFFSET -7.721573 0.000000 0.000000
												CHANNELS 3 Xrotation Yrotation Zrotation
												End Site
												{
													OFFSET 4.651108 6.158463 0.251582
												}
											}
										}
									}
								}
								JOINT RightHandRing1
								{
									OFFSET -22.726120 -0.094986 -6.500475
									CHANNELS 3 Xrotation Yrotation Zrotation
									JOINT RightHandRing2
									{
										OFFSET -6.408615 0.000000 0.000000
										CHANNELS 3 Xrotation Yrotation Zrotation
										JOINT RightHandRing3
										{
											OFFSET -6.150223 0.000000 0.000000
											CHANNELS 3 Xrotation Yrotation Zrotation
											JOINT RightHandRing4
											{
												OFFSET -6.145386 0.000000 0.000000
												CHANNELS 3 Xrotation Yrotation Zrotation
												End Site
												{
													OFFSET 3.671402 4.923981 -0.202372
												}
											}
										}
									}
								}
								JOINT RightHandPinky1
								{
									OFFSET -18.920792 -0.453171 -11.426712
									CHANNELS 3 Xrotation Yrotation Zrotation
									JOINT RightHandPinky2
									{
										OFFSET -4.919586 0.000000 0.000000
										CHANNELS 3 Xrotation Yrotation Zrotation
										JOINT RightHandPinky3
										{
											OFFSET -5.233047 0.000000 0.000000
											CHANNELS 3 Xrotation Yrotation Zrotation
											JOINT RightHandPinky4
											{
												OFFSET -5.571716 0.000000 0.000000
												CHANNELS 3 Xrotation Yrotation Zrotation
												End Site
												{
													OFFSET 3.459808 4.342407 -0.466164
												}
											}
										}
									}
								}
							}
						}
					}
				}
			}
		}
	}
	JOINT LeftUpLeg
	{
		OFFSET 19.899099 -7.885101 -3.429500
		CHANNELS 3 Xrotation Yrotation Zrotation
		JOINT LeftLeg
		{
			OFFSET 1.745560 -36.997807 10.304700
			CHANNELS 3 Xrotation Yrotation Zrotation
			JOINT LeftFoot
			{
				OFFSET -1.745558 -29.803308 -13.615400
				CHANNELS 3 Xrotation Yrotation Zrotation
				JOINT LeftToeBase
				{
					OFFSET 1.181900 -18.539904 15.226099
					CHANNELS 3 Xrotation Yrotation Zrotation
					JOINT LeftToe_End
					{
						OFFSET -0.863701 1.402801 16.534700
						CHANNELS 3 Xrotation Yrotation Zrotation
						End Site
						{
							OFFSET 0.000000 16.616566 0.000000
						}
					}
				}
			}
		}
	}
	JOINT RightUpLeg
	{
		OFFSET -19.899099 -7.885101 -3.429500
		CHANNELS 3 Xrotation Yrotation Zrotation
		JOINT RightLeg
		{
			OFFSET -1.745560 -36.997807 10.304700
			CHANNELS 3 Xrotation Yrotation Zrotation
			JOINT RightFoot
			{
				OFFSET 1.745558 -29.803308 -13.615400
				CHANNELS 3 Xrotation Yrotation Zrotation
				JOINT RightToeBase
				{
					OFFSET -1.181900 -18.539904 15.226099
					CHANNELS 3 Xrotation Yrotation Zrotation
					JOINT RightToe_End
					{
						OFFSET 0.863701 1.402801 16.534700
						CHANNELS 3 Xrotation Yrotation Zrotation
						End Site
						{
							OFFSET 0.000000 16.616566 0.000000
						}
					}
				}
			}
		}
	}
}
MOTION
Frames: 5
Frame Time: 0.033333
1.385539 80.435081 -1.635065 172.443849 -36.021953 177.961412 15.046931 -0.940464 -5.863424 5.281324 0.499270 -2.931901 5.277398 0.558250 -2.960606 -3.273700 -1.210172 3.244258 -24.798387 49.223442 7.362771 -0.000000 -0.000000 -0.000000 1.843679 -3.389010 -12.507150 -40.258959 25.810971 -34.878511 0.380175 -43.219514 0.366671 -9.249534 0.999590 0.444764 40.109907 -15.297197 -0.360530 5.639898 28.097812 11.338787 1.088498 40.896208 22.734073 -0.000001 -0.000003 -0.000001 -17.946928 14.755056 -51.485864 8.868439 8.667028 -84.812030 4.540488 8.852591 -59.153010 0.000002 -0.000002 -0.000004 -9.042474 10.045690 -60.766192 8.524136 9.508819 -66.892947 6.576570 9.896770 -70.385120 0.000004 0.000001 0.000005 -2.345540 4.688798 -62.655224 8.754090 9.897124 -87.051239 1.995376 4.929255 -37.483368 -0.000004 -0.000002 0.000009 6.882220 2.840050 -61.140438 8.248119 7.639999 -89.897925 2.146128 8.173354 -41.827771 -0.000004 0.000001 -0.000001 0.814397 6.707832 8.570369 5.915663 -4.463518 54.070807 -21.640744 28.313224 14.359129 -29.655449 10.546347 -18.143943 -2.119384 -4.265903 13.816443 2.364954 -23.802417 -8.777720 -5.009592 13.984459 5.858981 -0.000000 -0.000001 -0.000000 0.074246 1.872853 -8.001953 0.054974 -0.362845 6.989301 -0.003750 -2.726278 1.967277 -0.000001 -0.000003 -0.000001 0.335155 -5.166204 -2.118678 1.296944 -3.882537 21.912338 0.083878 1.198386 -2.412010 -0.000000 -0.000001 -0.000001 0.950697 -11.714918 1.959335 1.646031 -3.428606 24.730240 1.287672 -3.618043 17.358011 0.000002 0.000001 -0.000002 2.040749 -18.812200 9.164465 3.242071 -1.774131 16.697641 6.200850 -4.706925 26.805293 0.000001 -0.000002 0.000002 -40.843712 8.411919 30.466933 36.127599 -0.472846 -0.824727 0.132729 -10.428002 -22.331175 -1.095958 -0.000557 -0.000250 0.000000 0.000001 -0.000000 -23.428848 -24.328321 -38.645856 32.625157 7.605244 -0.802367 -15.905591 -7.629653 26.725195 -0.006957 -0.000444 0.000023 0.000000 0.000000 0.000000 
0.377767 80.042862 -1.742407 173.350707 -33.364730 178.508824 15.053667 -0.747464 -5.376421 5.477488 0.535756 -2.877112 5.473795 0.604577 -2.915684 -3.415513 -0.106279 3.472234 -23.313555 50.969064 5.801201 0.000000 -0.000000 -0.000000 1.846018 -3.324140 -12.386657 -40.013393 25.927874 -34.849186 0.409215 -45.001596 0.397160 -9.433962 0.320630 0.337174 40.109907 -15.297196 -0.360530 5.639896 28.097809 11.338785 1.088500 40.896195 22.734073 0.000001 -0.000001 -0.000001 -17.946930 14.755061 -51.485864 8.868435 8.667026 -84.812030 4.540486 8.852588 -59.153004 -0.000001 -0.000000 -0.000001 -9.042474 10.045694 -60.766185 8.524131 9.508820 -66.892947 6.576575 9.896775 -70.385120 -0.000002 0.000003 0.000002 -2.345541 4.688799 -62.655224 8.754085 9.897119 -87.051232 1.995376 4.929256 -37.483364 -0.000000 -0.000004 0.000004 6.882221 2.840052 -61.140438 8.248117 7.639999 -89.897918 2.146134 8.173352 -41.827771 -0.000002 0.000000 -0.000002 0.772256 6.863678 8.617189 6.375994 -6.631868 53.892590 -21.936023 30.907579 15.656177 -28.461981 10.480270 -18.070597 -2.197516 -4.909242 12.747868 2.364988 -23.802385 -8.777678 -5.009578 13.984456 5.858984 0.000001 -0.000000 -0.000002 0.022070 1.397852 -4.959735 0.043735 -0.275309 6.381985 -0.009025 -2.368804 -0.410824 -0.000000 0.000001 -0.000001 0.332888 -5.426645 -0.481951 1.338785 -3.985820 22.658381 0.098485 1.470284 -4.063782 0.000001 0.000001 -0.000004 1.039146 -11.730190 2.723629 1.700896 -3.533708 25.475511 1.330326 -3.738270 18.101374 -0.000001 -0.000002 -0.000003 2.056254 -18.938144 9.910170 3.279406 -1.895761 17.439421 6.256554 -4.815172 27.551469 -0.000002 0.000000 0.000004 -39.411629 8.697985 30.869798 32.747335 1.433593 -0.487533 0.014245 -14.314670 -22.942033 -1.637389 -0.000541 -0.000246 0.000000 -0.000001 -0.000000 -23.694174 -22.367830 -39.148063 32.522714 7.863430 -0.829966 -15.107330 -6.445721 27.482224 -0.008735 -0.000436 0.000020 0.000000 -0.000000 -0.000000 
-0.275559 79.260063 -1.647430 174.172228 -30.716133 178.948948 15.059616 -0.522750 -4.819029 5.681476 0.561300 -2.826089 5.677714 0.636477 -2.875143 -3.547957 0.826509 3.645710 -21.683810 52.802195 4.107709 -0.000001 -0.000000 -0.000000 1.843951 -3.256490 -12.304733 -39.722287 26.134115 -34.834767 0.420294 -46.294015 0.412692 -9.841809 -0.074216 0.314411 40.109907 -15.297199 -0.360531 5.639895 28.097815 11.338783 1.088496 40.896212 22.734076 -0.000002 0.000002 -0.000001 -17.946932 14.755054 -51.485864 8.868436 8.667025 -84.812037 4.540486 8.852589 -59.153004 0.000001 0.000001 0.000001 -9.042476 10.045689 -60.766185 8.524129 9.508816 -66.892947 6.576569 9.896768 -70.385113 -0.000000 0.000001 0.000005 -2.345543 4.688799 -62.655217 8.754094 9.897126 -87.051232 1.995377 4.929257 -37.483358 0.000000 -0.000000 0.000004 6.882219 2.840050 -61.140438 8.248123 7.639999 -89.897925 2.146135 8.173352 -41.827771 -0.000000 0.000005 0.000002 0.722382 7.060724 8.662284 7.026852 -8.467777 53.690041 -22.365053 33.676319 16.923875 -27.628474 10.412801 -17.938216 -2.276525 -5.547579 11.673472 2.364978 -23.802417 -8.777741 -5.009573 13.984489 5.858959 -0.000000 -0.000001 -0.000002 -0.004530 0.916725 -1.919145 0.032665 -0.187748 5.774671 -0.005546 -2.106416 -2.155886 -0.000000 -0.000001 0.000001 0.336055 -5.688732 1.155020 1.381997 -4.088609 23.404494 0.114197 1.670078 -5.279702 0.000000 0.000000 -0.000006 1.127975 -11.744435 3.487916 1.757230 -3.638074 26.221134 1.373247 -3.853866 18.845412 -0.000001 -0.000000 -0.000003 2.071791 -19.067054 10.655652 3.318802 -2.016942 18.181376 6.314506 -4.922649 28.297778 0.000002 0.000001 0.000002 -38.914617 8.999433 28.867805 33.176496 -10.962594 -0.723416 -1.519903 -1.699632 -20.196227 -1.844111 -0.000491 -0.000239 -0.000000 0.000000 0.000000 -25.167420 -20.423715 -39.724097 33.771372 9.593625 -0.857735 -14.811585 -6.092007 27.307535 -0.010940 -0.000447 0.000014 0.000000 0.000000 0.000000 
-0.395595 78.883728 -1.463088 174.903673 -28.093596 179.348883 15.063263 -0.302293 -4.263966 5.872633 0.569749 -2.801240 5.868534 0.648871 -2.855437 -3.632088 1.442655 3.746377 -20.005684 54.833691 2.407445 -0.000001 -0.000000 -0.000001 1.828126 -3.192710 -12.271537 -39.386672 26.350221 -34.910900 0.424959 -46.807491 0.419063 -10.316589 -0.132169 0.357219 40.109910 -15.297201 -0.360526 5.639896 28.097814 11.338786 1.088498 40.896202 22.734075 -0.000001 0.000001 0.000003 -17.946927 14.755058 -51.485860 8.868437 8.667017 -84.812037 4.540484 8.852591 -59.153004 0.000001 0.000000 -0.000006 -9.042479 10.045686 -60.766192 8.524132 9.508819 -66.892947 6.576569 9.896769 -70.385120 -0.000003 0.000001 -0.000000 -2.345541 4.688792 -62.655217 8.754092 9.897128 -87.051232 1.995376 4.929253 -37.483364 -0.000005 -0.000001 0.000006 6.882216 2.840049 -61.140438 8.248122 7.639997 -89.897918 2.146129 8.173350 -41.827771 -0.000003 0.000003 0.000001 0.666035 7.263149 8.706725 7.934276 -9.678084 53.427830 -22.868979 36.191912 17.965814 -27.376102 10.431176 -17.813137 -2.346141 -6.100546 10.731526 2.364977 -23.802398 -8.777714 -5.009583 13.984490 5.858977 0.000001 0.000000 0.000003 -0.006388 0.492999 0.732334 0.022269 -0.087305 5.079038 -0.001832 -2.004465 -2.833923 -0.000002 0.000001 -0.000001 0.339511 -5.918895 2.582902 1.420767 -4.177784 24.055516 0.124170 1.747510 -5.753078 0.000001 0.000000 -0.000008 1.205793 -11.756075 4.154743 1.807499 -3.728500 26.871689 1.410646 -3.950523 19.495105 0.000001 0.000001 -0.000003 2.085561 -19.179036 11.306145 3.354808 -2.122180 18.828557 6.366999 -5.015695 28.949180 0.000000 0.000000 0.000001 -37.381031 9.000266 29.819025 35.073988 -10.553179 -0.716128 -3.622504 0.153700 -20.666805 -1.839214 -0.000457 -0.000240 0.000000 -0.000002 -0.000000 -26.995995 -18.840211 -40.125606 34.709737 9.753475 -0.983279 -14.134073 -3.890728 27.317507 -0.001655 -0.000435 0.000015 -0.000000 0.000000 -0.000000 
-0.395595 78.883728 -1.463088 174.903673 -28.093596 179.348883 15.063263 -0.302293 -4.263966 5.872633 0.569749 -2.801240 5.868534 0.648871 -2.855437 -3.632088 1.442655 3.746377 -20.005684 54.833691 2.407445 -0.000001 -0.000000 -0.000001 1.828126 -3.192710 -12.271537 -39.386672 26.350221 -34.910900 0.424959 -46.807491 0.419063 -10.316589 -0.132169 0.357219 40.109910 -15.297201 -0.360526 5.639896 28.097814 11.338786 1.088498 40.896202 22.734075 -0.000001 0.000001 0.000003 -17.946927 14.755058 -51.485860 8.868437 8.667017 -84.812037 4.540484 8.852591 -59.153004 0.000001 0.000000 -0.000006 -9.042479 10.045686 -60.766192 8.524132 9.508819 -66.892947 6.576569 9.896769 -70.385120 -0.000003 0.000001 -0.000000 -2.345541 4.688792 -62.655217 8.754092 9.897128 -87.051232 1.995376 4.929253 -37.483364 -0.000005 -0.000001 0.000006 6.882216 2.840049 -61.140438 8.248122 7.639997 -89.897918 2.146129 8.173350 -41.827771 -0.000003 0.000003 0.000001 0.666035 7.263149 8.706725 7.934276 -9.678084 53.427830 -22.868979 36.191912 17.965814 -27.376102 10.431176 -17.813137 -2.346141 -6.100546 10.731526 2.364977 -23.802398 -8.777714 -5.009583 13.984490 5.858977 0.000001 0.000000 0.000003 -0.006388 0.492999 0.732334 0.022269 -0.087305 5.079038 -0.001832 -2.004465 -2.833923 -0.000002 0.000001 -0.000001 0.339511 -5.918895 2.582902 1.420767 -4.177784 24.055516 0.124170 1.747510 -5.753078 0.000001 0.000000 -0.000008 1.205793 -11.756075 4.154743 1.807499 -3.728500 26.871689 1.410646 -3.950523 19.495105 0.000001 0.000001 -0.000003 2.085561 -19.179036 11.306145 3.354808 -2.122180 18.828557 6.366999 -5.015695 28.949180 0.000000 0.000000 0.000001 -37.381031 9.000266 29.819025 35.073988 -10.553179 -0.716128 -3.622504 0.153700 -20.666805 -1.839214 -0.000457 -0.000240 0.000000 -0.000002 -0.000000 -26.995995 -18.840211 -40.125606 34.709737 9.753475 -0.983279 -14.134073 -3.890728 27.317507 -0.001655 -0.000435 0.000015 -0.000000 0.000000 -0.000000 
